<?xml version="1.0" encoding="UTF-8"?>
<!DOCTYPE svg PUBLIC "-//W3C//DTD SVG 1.1//EN" "http://www.w3.org/Graphics/SVG/1.1/DTD/svg11.dtd">
<!-- Creator: CorelDRAW X8 -->
<svg xmlns="http://www.w3.org/2000/svg" xml:space="preserve" width="166.511mm" height="154.164mm" version="1.1" style="shape-rendering:geometricPrecision; text-rendering:geometricPrecision; image-rendering:optimizeQuality; fill-rule:evenodd; clip-rule:evenodd"
viewBox="0 0 16651 15416"
 xmlns:xlink="http://www.w3.org/1999/xlink">
 <defs>
  <style type="text/css">
   <![CDATA[
    .fil0 {fill:white;fill-rule:nonzero}
   ]]>
  </style>
 </defs>
 <g id="Capa_x0020_1">
  <metadata id="CorelCorpID_0Corel-Layer"/>
  <path class="fil0" d="M7935 6828c487,0 882,395 882,882 0,487 -395,882 -882,882l-4648 0 -31 92 1 1 0 0c-5,17 -11,33 -17,49l-860 2567 1 0c-9,32 -20,64 -32,94 -405,1210 -607,1817 -549,1966 26,68 66,125 114,169 49,45 109,78 177,97 155,43 755,-227 1956,-767 2983,-1279 5975,-2688 8940,-4023 1169,-526 1753,-789 1823,-930 29,-60 44,-127 44,-197 0,-70 -15,-138 -44,-197 -17,-34 -127,-106 -336,-223 -336,-189 -830,-411 -1488,-708l-8954 -4029c-688,-309 -1203,-541 -1545,-660 -233,-80 -364,-116 -405,-105 -64,18 -124,52 -177,100 -50,45 -89,101 -114,164 -15,37 8,172 65,413 96,406 266,921 494,1607l915 2756 4670 0zm-6243 946c-1,-21 -2,-42 -2,-64 0,-8 0,-16 0,-23l0 -3c-2,-12 -7,-34 -18,-70 -23,-79 -49,-158 -84,-264l-905 -2727c-253,-760 -442,-1331 -543,-1759 -139,-594 -149,-1044 11,-1452 127,-324 326,-608 576,-834 248,-223 551,-391 887,-485 420,-117 867,-61 1445,140 468,162 995,399 1697,715l8953 4029c702,316 1229,553 1626,776 525,296 859,590 1053,981 153,310 230,644 230,976 0,331 -77,665 -230,975 -351,710 -1127,1059 -2678,1757 -2979,1342 -5956,2691 -8939,4023 -1587,714 -2381,1071 -3149,857 -333,-93 -635,-263 -887,-490 -252,-228 -451,-511 -575,-831 -286,-734 -19,-1550 521,-3165l5 -17 1 0c295,-881 590,-1763 885,-2644 4,-12 7,-23 11,-34l0 -1 1 1 2 -8c65,-194 98,-292 103,-333 2,-9 3,-18 3,-26z"/>
 </g>
</svg>
